<?xml version="1.0" encoding="utf-8"?>
<!-- Generator: Adobe Illustrator 22.0.0, SVG Export Plug-In . SVG Version: 6.00 Build 0)  -->
<svg version="1.1" id="Capa_1" xmlns="http://www.w3.org/2000/svg" xmlns:xlink="http://www.w3.org/1999/xlink" x="0px" y="0px"
	 viewBox="0 0 58 58" style="enable-background:new 0 0 58 58;" xml:space="preserve">
<style type="text/css">
	.st0{fill:#FFFFFF;}
</style>
<g>
	<path class="st0" d="M42.9,4.5c-0.5-2.3-2.5-4-4.9-4c-0.6,0-1,0.4-1,1s0.4,1,1,1c1.7,0,3,1.3,3,3s-1.3,3-3,3c-0.6,0-1,0.4-1,1
		s0.4,1,1,1c2.4,0,4.4-1.7,4.9-4H56v7H44h-2H30h-2H16h-2H2v-7h14h3c0.6,0,1-0.4,1-1s-0.4-1-1-1h-1.8c0.4-1.2,1.5-2,2.8-2
		c1.7,0,3,1.3,3,3s-1.3,3-3,3c-0.6,0-1,0.4-1,1s0.4,1,1,1c2.8,0,5-2.2,5-5s-2.2-5-5-5c-2.4,0-4.4,1.7-4.9,4H0v9v3v11v2v12v2v14h14h2
		h12h2h12h2h14v-14v-2v-12v-2v-11v-3v-9H42.9z M30,15.5h12v12H30V15.5z M42,41.5H30v-12h12V41.5z M16,29.5h12v12H16V29.5z M16,15.5
		h12v12H16V15.5z M2,16.5v-1h12v12H2V16.5z M2,29.5h12v12H2V29.5z M2,55.5v-12h12v12H2z M16,55.5v-12h12v12H16z M30,55.5v-12h12v12
		H30z M56,55.5H44v-12h12V55.5z M56,41.5H44v-12h12V41.5z M44,27.5v-12h12v1v11H44z"/>
	<path class="st0" d="M26,2.5c1.7,0,3,1.3,3,3s-1.3,3-3,3c-0.6,0-1,0.4-1,1s0.4,1,1,1c2.8,0,5-2.2,5-5s-2.2-5-5-5c-0.6,0-1,0.4-1,1
		S25.4,2.5,26,2.5z"/>
	<path class="st0" d="M32,2.5c1.7,0,3,1.3,3,3s-1.3,3-3,3c-0.6,0-1,0.4-1,1s0.4,1,1,1c2.8,0,5-2.2,5-5s-2.2-5-5-5c-0.6,0-1,0.4-1,1
		S31.4,2.5,32,2.5z"/>
	<path class="st0" d="M31.3,40.2c0.2,0.2,0.5,0.3,0.7,0.3s0.5-0.1,0.7-0.3l3.3-3.3l3.3,3.3c0.2,0.2,0.5,0.3,0.7,0.3s0.5-0.1,0.7-0.3
		c0.4-0.4,0.4-1,0-1.4l-3.3-3.3l3.3-3.3c0.4-0.4,0.4-1,0-1.4s-1-0.4-1.4,0L36,34.1l-3.3-3.3c-0.4-0.4-1-0.4-1.4,0s-0.4,1,0,1.4
		l3.3,3.3l-3.3,3.3C30.9,39.2,30.9,39.8,31.3,40.2z"/>
</g>
</svg>
