<?xml version="1.0" encoding="utf-8"?>
<!-- Generator: Adobe Illustrator 22.0.0, SVG Export Plug-In . SVG Version: 6.00 Build 0)  -->
<svg version="1.1" id="Capa_1" xmlns="http://www.w3.org/2000/svg" xmlns:xlink="http://www.w3.org/1999/xlink" x="0px" y="0px"
	 viewBox="0 0 54 54" style="enable-background:new 0 0 54 54;" xml:space="preserve">
<style type="text/css">
	.st0{fill:#FFFFFF;}
</style>
<g>
	<path class="st0" d="M27,8c-9.4,0-17,7.6-17,17c0,7.1,4.4,13.4,11,15.9V50c0,0.6,0.4,1,1,1h1v2c0,0.6,0.4,1,1,1h6c0.6,0,1-0.4,1-1
		v-2h1c0.6,0,1-0.4,1-1v-9.1c6.6-2.5,11-8.8,11-15.9C44,15.6,36.4,8,27,8z M30,49c-0.6,0-1,0.4-1,1v2h-4v-2c0-0.6-0.4-1-1-1h-1v-5h8
		v5H30z M31.7,39.2c-0.4,0.1-0.7,0.5-0.7,1V42h-8v-1.8c0-0.4-0.3-0.8-0.7-1C16.1,37.2,12,31.5,12,25c0-8.3,6.7-15,15-15
		s15,6.7,15,15C42,31.5,37.9,37.2,31.7,39.2z"/>
	<path class="st0" d="M27,6c0.6,0,1-0.4,1-1V1c0-0.6-0.4-1-1-1s-1,0.4-1,1v4C26,5.6,26.4,6,27,6z"/>
	<path class="st0" d="M51,24h-4c-0.6,0-1,0.4-1,1s0.4,1,1,1h4c0.6,0,1-0.4,1-1S51.6,24,51,24z"/>
	<path class="st0" d="M7,24H3c-0.6,0-1,0.4-1,1s0.4,1,1,1h4c0.6,0,1-0.4,1-1S7.6,24,7,24z"/>
	<path class="st0" d="M43.3,7.3l-2.8,2.8c-0.4,0.4-0.4,1,0,1.4c0.2,0.2,0.5,0.3,0.7,0.3s0.5-0.1,0.7-0.3l2.8-2.8
		c0.4-0.4,0.4-1,0-1.4S43.7,6.9,43.3,7.3z"/>
	<path class="st0" d="M12.1,38.4l-2.8,2.8c-0.4,0.4-0.4,1,0,1.4C9.5,42.9,9.8,43,10,43s0.5-0.1,0.7-0.3l2.8-2.8c0.4-0.4,0.4-1,0-1.4
		S12.5,38,12.1,38.4z"/>
	<path class="st0" d="M41.8,38.4c-0.4-0.4-1-0.4-1.4,0s-0.4,1,0,1.4l2.8,2.8c0.2,0.2,0.5,0.3,0.7,0.3s0.5-0.1,0.7-0.3
		c0.4-0.4,0.4-1,0-1.4L41.8,38.4z"/>
	<path class="st0" d="M12.1,11.6c0.2,0.2,0.5,0.3,0.7,0.3s0.5-0.1,0.7-0.3c0.4-0.4,0.4-1,0-1.4l-2.8-2.8c-0.4-0.4-1-0.4-1.4,0
		s-0.4,1,0,1.4L12.1,11.6z"/>
	<path class="st0" d="M27,13c-6.6,0-12,5.4-12,12c0,0.6,0.4,1,1,1c0.6,0,1-0.4,1-1c0-5.5,4.5-10,10-10c0.6,0,1-0.4,1-1
		S27.6,13,27,13z"/>
</g>
</svg>
