<?xml version="1.0" encoding="utf-8"?>
<!-- Generator: Adobe Illustrator 22.0.0, SVG Export Plug-In . SVG Version: 6.00 Build 0)  -->
<svg version="1.1" id="Capa_1" xmlns="http://www.w3.org/2000/svg" xmlns:xlink="http://www.w3.org/1999/xlink" x="0px" y="0px"
	 viewBox="0 0 52 52" style="enable-background:new 0 0 52 52;" xml:space="preserve">
<style type="text/css">
	.st0{fill:#FFFFFF;}
</style>
<g>
	<path class="st0" d="M26,0C11.7,0,0,11.7,0,26s11.7,26,26,26s26-11.7,26-26S40.3,0,26,0z M26,50C12.8,50,2,39.2,2,26S12.8,2,26,2
		s24,10.8,24,24S39.2,50,26,50z"/>
	<path class="st0" d="M26,37c-0.6,0-1,0.4-1,1v2c0,0.6,0.4,1,1,1s1-0.4,1-1v-2C27,37.4,26.6,37,26,37z"/>
	<path class="st0" d="M26.1,9c0,0-0.1,0-0.1,0c-2.1,0-4.1,0.8-5.6,2.3C18.8,12.8,18,14.8,18,17c0,0.6,0.4,1,1,1s1-0.4,1-1
		c0-1.6,0.6-3.1,1.8-4.3c1.2-1.1,2.7-1.8,4.3-1.7c3.2,0,5.9,2.8,5.9,5.9c0,2.1-1,4-2.8,5.1c-2.7,1.7-4.2,4.7-4.2,8.1V33
		c0,0.6,0.4,1,1,1s1-0.4,1-1v-2.8c0-2.6,1.3-5.1,3.3-6.4c2.3-1.5,3.7-4.1,3.7-6.8C33.9,12.6,30.4,9.1,26.1,9z"/>
</g>
</svg>
